<svg width="12" height="12" viewBox="0 0 24 24" fill="none" xmlns="http://www.w3.org/2000/svg"><path d="M15.4091 12.0244L21.5568 1.07536C21.7009 0.830957 21.7009 0.586558 21.5568 0.342159C21.4127 0.146639 21.1726 0 20.9324 0H8.2527C8.01256 0 7.77241 0.146639 7.62832 0.342159L1.09635 11.6334C0.952259 11.8778 0.952259 12.1711 1.09635 12.3666L7.62832 23.6578C7.77241 23.9022 8.01256 24 8.2527 24H20.9324C21.1726 24 21.4127 23.8534 21.5568 23.6578C21.7009 23.4134 21.7009 23.169 21.5568 22.9246L15.4091 12.0244ZM14.5926 10.558L9.50146 1.4664H19.7317L14.5926 10.558ZM8.20467 2.19959L13.728 12.0244L8.20467 21.8493L2.53722 12.0244L8.20467 2.19959ZM9.50146 22.5336L14.5926 13.442L19.6837 22.5336H9.50146Z" fill="#00122C"></path></svg>